<svg width="102" height="126" viewBox="0 0 102 126" fill="none" xmlns="http://www.w3.org/2000/svg">
<path fill-rule="evenodd" clip-rule="evenodd" d="M0.204531 8.818C-0.504469 18.81 0.684533 31.449 2.92453 37.737C8.56653 53.568 23.4975 65.884 42.7995 70.629C46.5225 71.544 49.8125 72.049 50.1105 71.75C50.4085 71.452 49.3325 67.81 47.7195 63.655C44.2905 54.825 36.2975 42.55 27.1275 32.035C23.5485 27.931 20.8255 24.368 21.0755 24.118C21.3265 23.868 24.0395 25.391 27.1055 27.502C36.7555 34.148 45.8995 45.8 51.0385 57.996C52.6265 61.765 53.0245 65.973 53.4835 83.89C53.9655 102.723 54.2385 105.414 55.7625 106.373C57.1045 107.217 57.8925 107.064 59.2625 105.693C60.8785 104.077 61.0215 101.434 60.9125 75.21C60.8435 58.465 60.3205 44.01 59.6575 40.533C56.4015 23.454 45.1555 10.933 27.8285 5.096C22.6835 3.363 5.66353 0.0140009 1.93153 8.7036e-07C1.26053 -0.00199913 0.586531 3.443 0.204531 8.818ZM88.5 65.356C85.7997 68 86.6517 74.938 86.5 79.496C86.0155 94.0508 84.326 103.708 69.5 110.442C64.039 112.922 40.2645 112.806 33.3265 110.442C19.4211 105.704 15.1629 92.6392 14.5605 79.496C14.5605 72.5 13.9765 67.436 12.7945 65.356C11.6125 63.276 3.02353 56.996 1.36053 56.996C0.90453 56.996 0.531531 64.326 0.531531 73.286C0.531531 97.28 2.98954 104.65 14.5665 115.368C23.1985 123.359 41 125.767 52.5 125.767C66 125.767 78.7345 123.635 87.9035 114.466C98.2635 104.106 102 97.941 102 73.286C102 62.41 102 55.473 100.165 55.473C98 55.473 90.2373 63.655 88.5 65.356Z" fill="#1B4D34"/>
<path d="M62.3584 48.703C62.3534 28.518 70.9114 16.33 88.5314 11.427C92.7502 10.2525 97.0328 10.0886 101.372 9.996C102.167 17.4167 102.499 22.9575 99.2904 29.996C95.2044 38.957 91.4094 42.571 81.9624 46.499C74.4594 49.618 70.5114 51.961 66.3914 55.739C62.9774 58.87 62.3604 57.794 62.3584 48.703Z" fill="#699157"/>
</svg>
